<?xml version="1.0" standalone="no"?>
<!DOCTYPE svg PUBLIC "-//W3C//DTD SVG 20010904//EN"
 "http://www.w3.org/TR/2001/REC-SVG-20010904/DTD/svg10.dtd">
<svg version="1.0" xmlns="http://www.w3.org/2000/svg"
 width="594.000000pt" height="423.000000pt" viewBox="0 0 594.000000 423.000000"
 preserveAspectRatio="xMidYMid meet">

<g transform="translate(0.000000,423.000000) scale(0.100000,-0.100000)"
fill="#000000" stroke="none">
<path d="M690 1485 c0 -10 10 -15 29 -15 17 0 32 -4 36 -9 8 -13 -63 -422 -76
-438 -6 -7 -18 -13 -25 -13 -8 0 -14 -7 -14 -15 0 -13 28 -15 189 -15 l188 0
7 43 c4 23 9 52 13 65 4 16 1 22 -11 22 -10 0 -19 -11 -23 -30 -9 -48 -36 -60
-134 -60 -78 0 -87 2 -83 18 2 9 17 100 35 202 39 228 40 230 79 230 20 0 30
5 30 15 0 13 -20 15 -120 15 -100 0 -120 -2 -120 -15z"/>
<path d="M1612 1483 c2 -11 14 -19 31 -21 l27 -3 0 -219 0 -218 -30 -7 c-16
-4 -30 -13 -30 -21 0 -11 23 -14 120 -14 97 0 120 3 120 14 0 8 -13 17 -29 21
-37 8 -41 31 -41 231 0 198 3 214 44 214 70 0 114 -51 101 -117 -8 -47 -46
-83 -85 -83 -32 0 -40 -19 -16 -39 8 -7 45 -64 82 -126 l69 -115 72 0 c57 0
73 3 73 14 0 8 -9 18 -21 21 -23 8 -179 237 -164 242 111 37 143 183 50 228
-26 12 -70 15 -205 15 -158 0 -171 -1 -168 -17z"/>
<path d="M2938 1443 c-38 -16 -38 -16 -38 -74 0 -51 -3 -61 -25 -75 -27 -18
-25 -34 6 -34 18 0 19 -8 19 -116 0 -114 0 -116 29 -145 39 -38 84 -39 123 -2
15 15 28 30 28 34 0 4 -17 9 -37 11 l-38 3 -3 107 -3 107 38 3 c33 3 38 7 41
30 3 25 2 26 -38 21 l-42 -6 4 77 c3 85 2 86 -64 59z"/>
<path d="M5158 1443 c-38 -16 -38 -16 -38 -74 0 -51 -3 -61 -25 -75 -27 -18
-25 -34 6 -34 18 0 19 -8 19 -116 0 -114 0 -116 29 -145 39 -38 84 -39 123 -2
15 15 28 30 28 34 0 4 -17 9 -37 11 l-38 3 -3 107 -3 107 38 3 c33 3 38 7 41
30 3 25 2 26 -38 21 l-42 -6 4 77 c3 85 2 86 -64 59z"/>
<path d="M1250 1324 c-90 -39 -131 -95 -151 -208 -18 -105 7 -146 88 -146 37
0 114 32 157 65 33 25 8 30 -38 7 -80 -40 -126 -22 -126 49 0 28 4 39 15 39
32 0 131 45 157 71 21 21 28 37 28 68 0 65 -53 88 -130 55z m58 -60 c4 -38
-29 -81 -76 -101 -19 -8 -37 -12 -39 -9 -10 9 19 96 40 122 28 37 71 30 75
-12z"/>
<path d="M2260 1313 c-79 -41 -95 -68 -95 -161 0 -129 51 -182 175 -182 64 0
113 18 124 46 10 27 -2 33 -46 20 -76 -23 -133 11 -152 87 l-6 27 79 0 c43 0
93 3 111 6 32 7 32 7 27 55 -7 60 -31 98 -74 115 -48 21 -83 17 -143 -13z m99
-37 c7 -8 15 -30 18 -50 l6 -36 -62 0 c-60 0 -61 0 -61 28 0 40 26 72 59 72
16 0 34 -6 40 -14z"/>
<path d="M2620 1329 c-63 -25 -94 -91 -70 -148 12 -31 51 -54 110 -66 56 -12
70 -23 70 -55 0 -34 -23 -50 -72 -50 -47 0 -78 24 -78 61 0 18 -5 29 -14 29
-19 0 -33 -97 -17 -113 7 -7 47 -13 90 -15 91 -5 131 11 161 61 46 75 9 145
-89 166 -68 14 -91 27 -91 51 0 21 35 50 62 50 35 0 68 -23 68 -47 0 -16 6
-23 20 -23 17 0 20 7 20 45 0 40 -3 47 -26 55 -32 13 -111 12 -144 -1z"/>
<path d="M3193 1312 c-29 -18 -43 -34 -43 -49 0 -24 22 -43 28 -25 15 46 70
55 107 17 43 -42 34 -58 -47 -79 -91 -24 -118 -49 -118 -111 0 -91 79 -125
153 -64 l37 30 0 -25 c0 -25 1 -26 70 -26 56 0 70 3 70 15 0 8 -9 15 -19 15
-27 0 -32 22 -29 146 2 124 -6 148 -57 170 -53 22 -104 17 -152 -14z m100
-260 c-23 -17 -63 -12 -77 11 -16 26 11 68 54 82 l35 12 3 -46 c3 -35 -1 -48
-15 -59z"/>
<path d="M3580 1330 c-14 -5 -42 -11 -62 -15 -45 -7 -51 -32 -10 -37 l27 -3 3
-115 c2 -125 11 -154 54 -176 46 -24 93 -18 133 17 l35 31 0 -26 c0 -26 1 -26
75 -26 58 0 75 3 75 14 0 8 -10 16 -22 18 -23 3 -23 6 -26 166 -3 175 -1 171
-58 153 -16 -5 -46 -12 -67 -16 -42 -7 -45 -26 -6 -35 23 -6 24 -10 27 -90 4
-105 -1 -124 -33 -138 -35 -16 -51 -15 -69 4 -13 12 -16 41 -16 150 0 146 1
144 -60 124z"/>
<path d="M4035 1329 c-16 -4 -42 -11 -57 -14 -34 -7 -37 -32 -5 -37 22 -3 22
-6 22 -133 0 -127 0 -130 -22 -133 -13 -2 -23 -10 -23 -18 0 -11 21 -14 105
-14 85 0 105 3 105 14 0 9 -12 16 -27 18 l-28 3 -3 101 c-2 83 0 105 13 118
18 18 60 21 70 6 3 -5 13 -10 21 -10 10 0 14 14 14 55 0 53 -1 55 -26 55 -16
0 -39 -13 -60 -34 l-34 -34 0 34 c0 37 -8 40 -65 23z"/>
<path d="M4323 1312 c-29 -18 -43 -34 -43 -49 0 -24 22 -43 28 -25 15 46 70
55 107 17 43 -42 34 -58 -47 -79 -91 -24 -118 -49 -118 -111 0 -91 79 -125
153 -64 l37 30 0 -25 c0 -25 1 -26 70 -26 56 0 70 3 70 15 0 8 -9 15 -19 15
-27 0 -32 22 -29 146 2 124 -6 148 -57 170 -53 22 -104 17 -152 -14z m100
-260 c-23 -17 -63 -12 -77 11 -16 26 11 68 54 82 l35 12 3 -46 c3 -35 -1 -48
-15 -59z"/>
<path d="M4672 1323 c-64 -15 -77 -32 -31 -43 24 -6 24 -7 24 -135 l0 -130
-27 -3 c-16 -2 -28 -9 -28 -18 0 -11 20 -14 105 -14 84 0 105 3 105 14 0 8
-10 16 -22 18 -22 3 -23 8 -26 108 -3 114 4 134 49 145 17 4 33 0 50 -14 23
-19 24 -23 23 -145 l-1 -126 73 0 c59 0 74 3 74 15 0 8 -9 15 -19 15 -27 0
-31 18 -31 146 0 64 -5 124 -10 135 -30 55 -129 63 -181 13 l-29 -28 0 32 c0
37 -3 37 -98 15z"/>
<path d="M197 1183 c-3 -16 -9 -36 -13 -46 -6 -16 1 -18 96 -15 l102 3 14 40
c7 22 14 41 14 43 0 1 -47 2 -104 2 l-103 0 -6 -27z"/>
<path d="M5507 1183 c-3 -16 -9 -36 -13 -46 -6 -16 1 -18 96 -15 l102 3 14 40
c7 22 14 41 14 43 0 1 -47 2 -104 2 l-103 0 -6 -27z"/>
</g>
</svg>
